<svg xmlns="http://www.w3.org/2000/svg" width="62.257" height="62" viewBox="0 0 62.257 62">
  <g id="wi-snowflake-cold" transform="translate(-6.46 -5.85)" fill="#fff">
    <path d="M 37.64837265014648 67.34999847412109 C 36.77595138549805 67.34999847412109 35.96733093261719 67.02913665771484 35.30995178222656 66.42211151123047 C 34.64608001708984 65.80910491943359 34.30947113037109 65.03000640869141 34.30947113037109 64.10646057128906 C 34.30947113037109 63.24792861938477 34.65543365478516 62.47468948364258 35.30995178222656 61.87032699584961 C 35.98611068725586 61.2459602355957 36.75101089477539 60.94244003295898 37.64837265014648 60.94244003295898 C 38.52817153930664 60.94244003295898 39.29253005981445 61.25893783569336 39.92020034790039 61.88314819335938 C 40.53981018066406 62.49928665161133 40.86733245849609 63.26809692382813 40.86733245849609 64.10646057128906 C 40.86733245849609 64.996826171875 40.53982162475586 65.79315185546875 39.92019271850586 66.40930938720703 C 39.29250335693359 67.03350830078125 38.52814102172852 67.34999847412109 37.64837265014648 67.34999847412109 Z M 37.768310546875 59.43746948242188 C 36.89588165283203 59.43746948242188 36.08726119995117 59.11661911010742 35.42989349365234 58.50959014892578 C 34.77538299560547 57.90522766113281 34.42942047119141 57.10448837280273 34.42942047119141 56.19394683837891 L 34.42942047119141 44.59309768676758 L 26.2054615020752 52.77114868164063 C 25.55124092102051 53.42173004150391 24.77344131469727 53.7515983581543 23.89366149902344 53.7515983581543 C 23.01388168334961 53.7515983581543 22.23608207702637 53.42173004150391 21.58186149597168 52.77114868164063 C 20.9268627166748 52.11981964111328 20.59474182128906 51.34502792358398 20.59474182128906 50.46829986572266 C 20.59474182128906 49.58822250366211 20.91981887817383 48.85872268676758 21.58846282958984 48.23842620849609 L 29.91522407531738 39.99414825439453 L 18.17586135864258 39.99414825439453 C 17.31112670898438 39.99414825439453 16.55792236328125 39.68840408325195 15.93637371063232 39.08520889282227 C 15.2333459854126 38.58769607543945 14.8769416809082 37.85598754882813 14.8769416809082 36.90963745117188 C 14.8769416809082 36.04032897949219 15.20000171661377 35.23485946655273 15.81119155883789 34.58031845092773 C 16.42693138122559 33.9209098815918 17.19562149047852 33.58656692504883 18.09590148925781 33.58656692504883 L 29.79903221130371 33.58656692504883 L 21.55489730834961 25.38847160339355 C 20.90048027038574 24.82342147827148 20.55476188659668 24.05062103271484 20.55476188659668 23.15218925476074 C 20.55476188659668 22.27547836303711 20.88687133789063 21.50067901611328 21.54187202453613 20.84933853149414 C 22.19610214233398 20.19875907897949 22.97391128540039 19.86888885498047 23.85368156433105 19.86888885498047 C 24.73346138000488 19.86888885498047 25.51126098632813 20.19875907897949 26.16548156738281 20.84933853149414 L 34.38943099975586 29.02737808227539 L 34.38943099975586 17.46630859375 C 34.38943099975586 16.575927734375 34.73077011108398 15.76586818695068 35.37655258178711 15.12368869781494 C 36.03999328613281 14.46394824981689 36.80926132202148 14.14323806762695 37.72834014892578 14.14323806762695 C 38.62861251831055 14.14323806762695 39.39730072021484 14.47757816314697 40.01304244995117 15.13697814941406 C 40.64170074462891 15.8102388381958 40.94729232788086 16.57216835021973 40.94729232788086 17.46630859375 L 40.94729232788086 29.10320472717285 L 49.25042343139648 20.81034851074219 C 49.90542221069336 20.15899848937988 50.66978073120117 19.82912826538086 51.52301025390625 19.82912826538086 C 52.3903923034668 19.82912826538086 53.18980026245117 20.16815757751465 53.83482360839844 20.80957794189453 L 53.84844207763672 20.82311820983887 L 53.86099243164063 20.83767890930176 C 54.4268913269043 21.49421882629395 54.70198059082031 22.2382984161377 54.70198059082031 23.11242866516113 C 54.70198059082031 24.00279808044434 54.40212249755859 24.7716178894043 53.83483123779297 25.33575820922852 L 45.57767105102539 33.54681777954102 L 57.28078079223633 33.54681777954102 C 58.14223098754883 33.54681777954102 58.91844177246094 33.89044952392578 59.5255126953125 34.54055786132813 C 60.1541633605957 35.21380996704102 60.45975112915039 35.97572708129883 60.45975112915039 36.86988830566406 C 60.45975112915039 37.70824813842773 60.13224029541016 38.47706985473633 59.51262283325195 39.09320831298828 C 58.89377212524414 39.7086181640625 58.12201309204102 40.03389739990234 57.28078079223633 40.03389739990234 L 45.57766723632813 40.03389739990234 L 53.87480163574219 48.28472900390625 C 54.44210052490234 48.84886932373047 54.74196243286133 49.6176872253418 54.74196243286133 50.508056640625 C 54.74196243286133 51.38220977783203 54.46687316894531 52.12628936767578 53.90096282958984 52.78281784057617 L 53.88842010498047 52.79736709594727 L 53.87480163574219 52.81090927124023 C 53.22979354858398 53.45232009887695 52.43038177490234 53.79134750366211 51.56299209594727 53.79134750366211 C 50.69107055664063 53.79134750366211 49.88225173950195 53.44086074829102 49.28445816040039 52.80419158935547 L 40.98727035522461 44.51727294921875 L 40.98727035522461 56.19394683837891 C 40.98727035522461 57.08430862426758 40.65976333618164 57.88061904907227 40.04015350341797 58.49678802490234 C 39.41243362426758 59.12097930908203 38.6480712890625 59.43746948242188 37.768310546875 59.43746948242188 Z M 57.00091171264648 59.39770889282227 C 56.10241317749023 59.39770889282227 55.32878112792969 59.05655288696289 54.76171112060547 58.4107780456543 C 54.11154174804688 57.80103302001953 53.7819709777832 57.04199600219727 53.7819709777832 56.15417861938477 C 53.7819709777832 55.29168701171875 54.12968063354492 54.49143600463867 54.76166915893555 53.89762878417969 C 55.32873153686523 53.25176239013672 56.10233688354492 52.91063690185547 57.00091171264648 52.91063690185547 C 57.88070297241211 52.91063690185547 58.65850067138672 53.24050903320313 59.31272125244141 53.89108657836914 C 59.96771240234375 54.54241943359375 60.29983139038086 55.30382919311523 60.29983139038086 56.15417861938477 C 60.29983139038086 57.02304458618164 59.94698715209961 57.82871246337891 59.30607223510742 58.42384338378906 C 58.65321350097656 59.07009124755859 57.87771987915039 59.39770889282227 57.00091171264648 59.39770889282227 Z M 18.13589096069336 59.39770889282227 C 17.23740196228027 59.39770889282227 16.46380805969238 59.05660629272461 15.89673709869385 58.41082763671875 C 15.24656677246094 57.80107498168945 14.91694164276123 57.04198455810547 14.91694164276123 56.15417861938477 C 14.91694164276123 55.29169845581055 15.26465225219727 54.49144744873047 15.89663982391357 53.89762878417969 C 16.46371078491211 53.25176239013672 17.23732757568359 52.91063690185547 18.13589096069336 52.91063690185547 C 19.01568222045898 52.91063690185547 19.79348182678223 53.24050903320313 20.44770240783691 53.89108657836914 C 21.10269165039063 54.54241943359375 21.43481254577637 55.30382919311523 21.43481254577637 56.15417861938477 C 21.43481254577637 57.02299118041992 21.0820484161377 57.82857894897461 20.44120979309082 58.42369842529297 C 19.78830337524414 59.07001876831055 19.01274299621582 59.39770889282227 18.13589096069336 59.39770889282227 Z M 10.21893215179443 40.11340713500977 C 9.366864204406738 40.11340713500977 8.562670707702637 39.78163909912109 7.953396797180176 39.17895889282227 C 7.284972190856934 38.55588531494141 6.960001945495605 37.81348037719727 6.960001945495605 36.90963745117188 C 6.960001945495605 36.04031753540039 7.283061981201172 35.23484802246094 7.894241809844971 34.58031845092773 C 8.509982109069824 33.9209098815918 9.278672218322754 33.58656692504883 10.17895221710205 33.58656692504883 C 11.09272193908691 33.58656692504883 11.89658164978027 33.93019866943359 12.50364208221436 34.58031845092773 C 13.13229179382324 35.25355911254883 13.43788146972656 36.01548004150391 13.43788146972656 36.90963745117188 C 13.43788146972656 37.78636932373047 13.11922168731689 38.54777908325195 12.49075222015381 39.1727294921875 C 11.88074207305908 39.77933883666992 11.07393169403076 40.11340713500977 10.21893215179443 40.11340713500977 Z M 65.03783416748047 40.07366943359375 C 64.14429473876953 40.07366943359375 63.34488296508789 39.74837875366211 62.72602081298828 39.13296890258789 C 62.10640335083008 38.51680755615234 61.77889251708984 37.74799728393555 61.77889251708984 36.90963745117188 C 61.77889251708984 36.04031753540039 62.10195159912109 35.23484802246094 62.71313095092773 34.58031845092773 C 63.3202018737793 33.93019866943359 64.12406921386719 33.58656692504883 65.03783416748047 33.58656692504883 C 65.89928436279297 33.58656692504883 66.67549133300781 33.93019866943359 67.28256225585938 34.58030700683594 C 67.91120910644531 35.25356674194336 68.21680450439453 36.01549911499023 68.21680450439453 36.90963745117188 C 68.21680450439453 37.74800872802734 67.88928985595703 38.51682662963867 67.26966857910156 39.13296890258789 C 66.65081024169922 39.74837875366211 65.87905120849609 40.07366943359375 65.03783416748047 40.07366943359375 Z M 57.00091171264648 20.82912826538086 C 56.0991325378418 20.82912826538086 55.32320022583008 20.48555374145508 54.75558471679688 19.83518981933594 C 54.11859512329102 19.19539260864258 53.7819709777832 18.40414047241211 53.7819709777832 17.54582786560059 C 53.7819709777832 16.68334770202637 54.12968063354492 15.88310813903809 54.76166915893555 15.28927898406982 C 55.32873916625977 14.64341449737549 56.10234832763672 14.30228805541992 57.00091171264648 14.30228805541992 C 57.88069152832031 14.30228805541992 58.65849304199219 14.63215827941895 59.31271362304688 15.28273868560791 C 59.96772003173828 15.93407821655273 60.29983139038086 16.69548797607422 60.29983139038086 17.54582786560059 C 60.29983139038086 18.41019821166992 59.95849227905273 19.20651817321777 59.31271362304688 19.84867858886719 C 58.65849304199219 20.49925804138184 57.88069152832031 20.82912826538086 57.00091171264648 20.82912826538086 Z M 18.13589096069336 20.82912826538086 C 17.23412132263184 20.82912826538086 16.45818138122559 20.48555564880371 15.8905668258667 19.83520126342773 C 15.25349807739258 19.19537353515625 14.91694164276123 18.40418434143066 14.91694164276123 17.54582786560059 C 14.91694164276123 16.68335723876953 15.26460933685303 15.88315773010254 15.89659690856934 15.28932857513428 C 16.46366691589355 14.64347362518311 17.23733711242676 14.30228805541992 18.13589096069336 14.30228805541992 C 19.01567268371582 14.30228805541992 19.79347229003906 14.63215827941895 20.44769096374512 15.28273868560791 C 21.10270118713379 15.93407821655273 21.43481254577637 16.69548797607422 21.43481254577637 17.54582786560059 C 21.43481254577637 18.41019821166992 21.09347152709961 19.20651817321777 20.44769096374512 19.84867858886719 C 19.79346084594727 20.49925804138184 19.01565170288086 20.82912826538086 18.13589096069336 20.82912826538086 Z M 37.64837265014648 12.75755882263184 C 36.77595138549805 12.75755882263184 35.96733093261719 12.43669891357422 35.30995178222656 11.82966804504395 C 34.65543365478516 11.22529888153076 34.30947113037109 10.45205879211426 34.30947113037109 9.593538284301758 C 34.30947113037109 8.682998657226563 34.65543365478516 7.882258415222168 35.30995178222656 7.277878284454346 C 35.98611068725586 6.653518676757813 36.75101089477539 6.350008487701416 37.64837265014648 6.350008487701416 C 38.52816009521484 6.350008487701416 39.29252243041992 6.66649866104126 39.92020034790039 7.290688514709473 C 40.53982162475586 7.906848430633545 40.86733245849609 8.703168869018555 40.86733245849609 9.593538284301758 C 40.86733245849609 10.43188858032227 40.53982162475586 11.20070838928223 39.92019271850586 11.81686878204346 C 39.29250335693359 12.44106864929199 38.52814102172852 12.75755882263184 37.64837265014648 12.75755882263184 Z" stroke="none"/>
    <path d="M 37.64837265014648 66.84999847412109 C 38.4080810546875 66.84999847412109 39.04783248901367 66.57167053222656 39.56763076782227 66.05477142333984 C 40.08743286132813 65.53786468505859 40.36733245849609 64.86193084716797 40.36733245849609 64.10646057128906 C 40.36733245849609 63.3907585144043 40.08743286132813 62.75457000732422 39.56763076782227 62.23767852783203 C 39.0478401184082 61.72076034545898 38.4080810546875 61.44244003295898 37.64837265014648 61.44244003295898 C 36.84868240356445 61.44244003295898 36.20893096923828 61.72076797485352 35.64915084838867 62.23767852783203 C 35.08936309814453 62.75457000732422 34.80947113037109 63.3907585144043 34.80947113037109 64.10646057128906 C 34.80947113037109 64.90171051025391 35.08936309814453 65.53786468505859 35.64915084838867 66.05477142333984 C 36.20893096923828 66.57167053222656 36.888671875 66.84999847412109 37.64837265014648 66.84999847412109 M 37.768310546875 58.93746948242188 C 38.52802276611328 58.93746948242188 39.16777038574219 58.65913772583008 39.68758010864258 58.14225006103516 C 40.20737075805664 57.62534713745117 40.48727035522461 56.94940948486328 40.48727035522461 56.19394683837891 L 40.48727035522461 43.31122970581055 L 49.64374160766602 52.45636749267578 C 50.16354370117188 53.01301956176758 50.84326171875 53.29134750366211 51.56299209594727 53.29134750366211 C 52.28272247314453 53.29134750366211 52.96246337890625 53.01301956176758 53.52224349975586 52.45636749267578 C 54.00205993652344 51.89970779418945 54.24196243286133 51.26350784301758 54.24196243286133 50.508056640625 C 54.24196243286133 49.75257873535156 54.00205993652344 49.11641693115234 53.52224349975586 48.63926696777344 L 44.36577224731445 39.53389739990234 L 57.28078079223633 39.53389739990234 C 58.00051116943359 39.53389739990234 58.64026260375977 39.25556945800781 59.16006088256836 38.73867034912109 C 59.67987060546875 38.22176742553711 59.95975112915039 37.58559036254883 59.95975112915039 36.86988830566406 C 59.95975112915039 36.07464981079102 59.67985153198242 35.43846893310547 59.16006088256836 34.88180923461914 C 58.64026260375977 34.32514953613281 58.00051116943359 34.04681777954102 57.28078079223633 34.04681777954102 L 44.36577224731445 34.04681777954102 L 53.48226165771484 24.9812183380127 C 53.96207046508789 24.50407791137695 54.20198059082031 23.86788940429688 54.20198059082031 23.11242866516113 C 54.20198059082031 22.35695838928223 53.96207046508789 21.72077941894531 53.48226165771484 21.16411781311035 C 52.92247009277344 20.60745811462402 52.24274063110352 20.32912826538086 51.52301025390625 20.32912826538086 C 50.80328369140625 20.32912826538086 50.16354370117188 20.60745811462402 49.60375213623047 21.16411781311035 L 40.44729232788086 30.30924797058105 L 40.44729232788086 17.46630859375 C 40.44729232788086 16.67107772827148 40.16739273071289 16.03489875793457 39.64760208129883 15.47822856903076 C 39.12779235839844 14.92156887054443 38.48804092407227 14.64323806762695 37.72834014892578 14.64323806762695 C 36.92864227294922 14.64323806762695 36.28889083862305 14.92156887054443 35.72911071777344 15.47822856903076 C 35.1693229675293 16.03489875793457 34.88943099975586 16.71083831787109 34.88943099975586 17.46630859375 L 34.88943099975586 30.2297191619873 L 25.81292152404785 21.20387840270996 C 25.25314140319824 20.64721870422363 24.61338233947754 20.36888885498047 23.85368156433105 20.36888885498047 C 23.09397125244141 20.36888885498047 22.45422172546387 20.64721870422363 21.89443206787109 21.20387840270996 C 21.33465194702148 21.76053810119629 21.05476188659668 22.39671897888184 21.05476188659668 23.15218925476074 C 21.05476188659668 23.90765762329102 21.33465194702148 24.54383850097656 21.89443206787109 25.0209789276123 L 31.01093101501465 34.08656692504883 L 18.09590148925781 34.08656692504883 C 17.33619117736816 34.08656692504883 16.69644165039063 34.36489868164063 16.1766414642334 34.92155838012695 C 15.65684223175049 35.47822952270508 15.3769416809082 36.15417861938477 15.3769416809082 36.90963745117188 C 15.3769416809082 37.62534713745117 15.61686134338379 38.26152801513672 16.25661087036133 38.69891738891602 C 16.77640151977539 39.2158088684082 17.41616249084473 39.49414825439453 18.17586135864258 39.49414825439453 L 31.13088226318359 39.49414825439453 L 21.93442153930664 48.59951019287109 C 21.37463188171387 49.11641693115234 21.09474182128906 49.71282958984375 21.09474182128906 50.46829986572266 C 21.09474182128906 51.22377014160156 21.37463188171387 51.85995864868164 21.93442153930664 52.41660690307617 C 22.49420166015625 52.9732666015625 23.13395118713379 53.2515983581543 23.89366149902344 53.2515983581543 C 24.65336227416992 53.2515983581543 25.29312133789063 52.9732666015625 25.85290145874023 52.41660690307617 L 34.92942047119141 43.3907585144043 L 34.92942047119141 56.19394683837891 C 34.92942047119141 56.94940948486328 35.20930099487305 57.62534713745117 35.76909255981445 58.14225006103516 C 36.32887268066406 58.65914916992188 37.00860214233398 58.93746948242188 37.768310546875 58.93746948242188 M 57.00091171264648 58.89770889282227 C 57.7606315612793 58.89770889282227 58.40037155151367 58.61936950683594 58.96015167236328 58.06271743774414 C 59.51994323730469 57.54582977294922 59.79983139038086 56.86987686157227 59.79983139038086 56.15417861938477 C 59.79983139038086 55.43846893310547 59.51994323730469 54.80227661132813 58.96015167236328 54.24562835693359 C 58.40037155151367 53.68895721435547 57.7606315612793 53.41063690185547 57.00091171264648 53.41063690185547 C 56.2412223815918 53.41063690185547 55.6014518737793 53.68895721435547 55.12164306640625 54.24562835693359 C 54.56185150146484 54.76251983642578 54.2819709777832 55.43846893310547 54.2819709777832 56.15417861938477 C 54.2819709777832 56.90963745117188 54.56185150146484 57.54582977294922 55.12164306640625 58.06271743774414 C 55.6014518737793 58.61936950683594 56.2412109375 58.89770889282227 57.00091171264648 58.89770889282227 M 18.13589096069336 58.89770889282227 C 18.89560127258301 58.89770889282227 19.53534126281738 58.61936950683594 20.09513092041016 58.06271743774414 C 20.65492248535156 57.54582977294922 20.93481254577637 56.86987686157227 20.93481254577637 56.15417861938477 C 20.93481254577637 55.43846893310547 20.65492248535156 54.80227661132813 20.09513092041016 54.24562835693359 C 19.53535270690918 53.68895721435547 18.89560127258301 53.41063690185547 18.13589096069336 53.41063690185547 C 17.37618255615234 53.41063690185547 16.73643112182617 53.68895721435547 16.25661087036133 54.24562835693359 C 15.69683170318604 54.76251983642578 15.41694164276123 55.43846893310547 15.41694164276123 56.15417861938477 C 15.41694164276123 56.90963745117188 15.69683170318604 57.54582977294922 16.25661087036133 58.06271743774414 C 16.73643112182617 58.61936950683594 17.37618255615234 58.89770889282227 18.13589096069336 58.89770889282227 M 10.21893215179443 39.61340713500977 C 10.93866157531738 39.61340713500977 11.61840152740479 39.33507919311523 12.13819217681885 38.81818771362305 C 12.65799140930176 38.30130004882813 12.93788146972656 37.66510772705078 12.93788146972656 36.90963745117188 C 12.93788146972656 36.11440658569336 12.65799140930176 35.47822952270508 12.13819217681885 34.92155838012695 C 11.61840152740479 34.36489868164063 10.93866157531738 34.08656692504883 10.17895221710205 34.08656692504883 C 9.419241905212402 34.08656692504883 8.779491424560547 34.36489868164063 8.259692192077637 34.92155838012695 C 7.73989200592041 35.47822952270508 7.460001945495605 36.15417861938477 7.460001945495605 36.90963745117188 C 7.460001945495605 37.62534713745117 7.699911594390869 38.26152801513672 8.29967212677002 38.81818771362305 C 8.81947135925293 39.33507919311523 9.499212265014648 39.61340713500977 10.21893215179443 39.61340713500977 M 65.03783416748047 39.57366943359375 C 65.75754547119141 39.57366943359375 66.39730834960938 39.29533004760742 66.9171142578125 38.77842712402344 C 67.43692016601563 38.26152801513672 67.71680450439453 37.62534713745117 67.71680450439453 36.90963745117188 C 67.71680450439453 36.11440658569336 67.43690490722656 35.47822952270508 66.9171142578125 34.92155838012695 C 66.39730834960938 34.36489868164063 65.75755310058594 34.08656692504883 65.03783416748047 34.08656692504883 C 64.27812194824219 34.08656692504883 63.59838104248047 34.36489868164063 63.07858276367188 34.92155838012695 C 62.55878067016602 35.47822952270508 62.27889251708984 36.15417861938477 62.27889251708984 36.90963745117188 C 62.27889251708984 37.62534713745117 62.55878067016602 38.26152801513672 63.07858276367188 38.77842712402344 C 63.59838104248047 39.29533004760742 64.27812194824219 39.57366943359375 65.03783416748047 39.57366943359375 M 57.00091171264648 20.32912826538086 C 57.7606315612793 20.32912826538086 58.40037155151367 20.0507984161377 58.96015167236328 19.49413871765137 C 59.51994323730469 18.93747901916504 59.79983139038086 18.26152801513672 59.79983139038086 17.54582786560059 C 59.79983139038086 16.83011817932129 59.51994323730469 16.19393920898438 58.96015167236328 15.63727855682373 C 58.40037155151367 15.0806188583374 57.7606315612793 14.80228805541992 57.00091171264648 14.80228805541992 C 56.2412223815918 14.80228805541992 55.6014518737793 15.0806188583374 55.12164306640625 15.63727855682373 C 54.56185150146484 16.15417861938477 54.2819709777832 16.83011817932129 54.2819709777832 17.54582786560059 C 54.2819709777832 18.26152801513672 54.56185150146484 18.93747901916504 55.12164306640625 19.49413871765137 C 55.6014518737793 20.0507984161377 56.2412109375 20.32912826538086 57.00091171264648 20.32912826538086 M 18.13589096069336 20.32912826538086 C 18.89560127258301 20.32912826538086 19.53534126281738 20.0507984161377 20.09513092041016 19.49413871765137 C 20.65492248535156 18.93747901916504 20.93481254577637 18.26152801513672 20.93481254577637 17.54582786560059 C 20.93481254577637 16.83011817932129 20.65492248535156 16.19393920898438 20.09513092041016 15.63727855682373 C 19.53535270690918 15.0806188583374 18.89560127258301 14.80228805541992 18.13589096069336 14.80228805541992 C 17.37618255615234 14.80228805541992 16.73643112182617 15.0806188583374 16.25661087036133 15.63727855682373 C 15.69683170318604 16.15417861938477 15.41694164276123 16.83011817932129 15.41694164276123 17.54582786560059 C 15.41694164276123 18.26152801513672 15.69683170318604 18.93747901916504 16.25661087036133 19.49413871765137 C 16.73643112182617 20.0507984161377 17.37618255615234 20.32912826538086 18.13589096069336 20.32912826538086 M 37.64837265014648 12.25755882263184 C 38.4080810546875 12.25755882263184 39.04783248901367 11.97922801971436 39.56763076782227 11.46232891082764 C 40.08743286132813 10.9454288482666 40.36733245849609 10.30923843383789 40.36733245849609 9.593538284301758 C 40.36733245849609 8.838078498840332 40.08743286132813 8.162128448486328 39.56763076782227 7.645228385925293 C 39.0478401184082 7.128328323364258 38.4080810546875 6.850008487701416 37.64837265014648 6.850008487701416 C 36.84868240356445 6.850008487701416 36.20893096923828 7.128328323364258 35.64915084838867 7.645228385925293 C 35.08936309814453 8.162128448486328 34.80947113037109 8.838068008422852 34.80947113037109 9.593538284301758 C 34.80947113037109 10.30923843383789 35.08936309814453 10.9454288482666 35.64915084838867 11.46232891082764 C 36.20893096923828 11.97922801971436 36.888671875 12.25755882263184 37.64837265014648 12.25755882263184 M 37.64837265014648 67.84999847412109 C 36.64802169799805 67.84999847412109 35.72211074829102 67.48326873779297 34.97074127197266 66.78945922851563 C 34.20018005371094 66.07792663574219 33.80947113037109 65.17523956298828 33.80947113037109 64.10646057128906 C 33.80947113037109 63.1047477722168 34.21104049682617 62.2044792175293 34.97076034545898 61.50297927856445 C 35.73284149169922 60.79925918579102 36.63372039794922 60.44244003295898 37.64837265014648 60.44244003295898 C 38.65074157714844 60.44244003295898 39.55825042724609 60.81802749633789 40.27278137207031 61.52861785888672 C 40.98883056640625 62.24065780639648 41.36733245849609 63.132080078125 41.36733245849609 64.10646057128906 C 41.36733245849609 65.11820220947266 40.97860336303711 66.06193542480469 40.27276229858398 66.76384735107422 C 39.55821228027344 67.47441864013672 38.65071105957031 67.84999847412109 37.64837265014648 67.84999847412109 Z M 37.768310546875 59.93746948242188 C 36.76795196533203 59.93746948242188 35.8420524597168 59.57073974609375 35.09068298339844 58.87693786621094 C 34.33098220825195 58.17543792724609 33.92942047119141 57.24767684936523 33.92942047119141 56.19394683837891 L 33.92942047119141 45.79544067382813 L 26.55802154541016 53.12568664550781 C 25.80674171447754 53.87278747558594 24.91032218933105 54.2515983581543 23.89366149902344 54.2515983581543 C 22.87700271606445 54.2515983581543 21.98058128356934 53.87278747558594 21.22929191589355 53.12568664550781 C 20.47646141052246 52.37707901000977 20.09474182128906 51.48299789428711 20.09474182128906 50.46829986572266 C 20.09474182128906 49.458251953125 20.48083305358887 48.58667755126953 21.24245262145996 47.87739181518555 L 28.6995677947998 40.49414825439453 L 18.17586135864258 40.49414825439453 C 17.2033863067627 40.49414825439453 16.32021141052246 40.14064025878906 15.61587810516357 39.47063064575195 C 14.80493068695068 38.88169097900391 14.3769416809082 37.99825668334961 14.3769416809082 36.90963745117188 C 14.3769416809082 35.91135025024414 14.74653148651123 34.98788833618164 15.44574165344238 34.23906707763672 C 16.1497917175293 33.48509979248047 17.06620216369629 33.08656692504883 18.09590148925781 33.08656692504883 L 28.58713340759277 33.08656692504883 L 21.2144832611084 25.75508880615234 C 20.45554542541504 25.09340667724609 20.05476188659668 24.19434356689453 20.05476188659668 23.15218925476074 C 20.05476188659668 22.13750839233398 20.43648147583008 21.24342918395996 21.18930244445801 20.49479866027832 C 21.94060134887695 19.7476978302002 22.83703231811523 19.36888885498047 23.85368156433105 19.36888885498047 C 24.87034225463867 19.36888885498047 25.76676177978516 19.7476978302002 26.51805114746094 20.49479866027832 L 33.88943099975586 27.82503509521484 L 33.88943099975586 17.46630859375 C 33.88943099975586 16.43990898132324 34.28175354003906 15.50723838806152 35.02398300170898 14.76914882659912 C 35.78585052490234 14.01152801513672 36.67045211791992 13.64323806762695 37.72834014892578 13.64323806762695 C 38.75802993774414 13.64323806762695 39.67443084716797 14.04175853729248 40.37848281860352 14.79572868347168 C 41.08769989013672 15.55525875091553 41.44729232788086 16.45376777648926 41.44729232788086 17.46630859375 L 41.44729232788086 27.89715003967285 L 48.8970832824707 20.45657920837402 C 49.64992141723633 19.70793914794922 50.53289031982422 19.32912826538086 51.52301025390625 19.32912826538086 C 52.52534103393555 19.32912826538086 53.44667053222656 19.71845817565918 54.18738174438477 20.45502853393555 L 54.21463012695313 20.48212814331055 L 54.23972320556641 20.51122856140137 C 54.87823104858398 21.25200843811035 55.20198059082031 22.12717819213867 55.20198059082031 23.11242866516113 C 55.20198059082031 24.13882827758789 54.85114288330078 25.03023910522461 54.18739318847656 25.69029808044434 L 46.78956604003906 33.04681777954102 L 57.28078079223633 33.04681777954102 C 58.28432083129883 33.04681777954102 59.18691253662109 33.44534683227539 59.89095306396484 34.19931793212891 C 60.60016250610352 34.95882797241211 60.95975112915039 35.85733795166016 60.95975112915039 36.86988830566406 C 60.95975112915039 37.84428024291992 60.58125305175781 38.73568725585938 59.86518096923828 39.44775772094727 C 59.15064239501953 40.15831756591797 58.25696182250977 40.53389739990234 57.28078079223633 40.53389739990234 L 46.78957366943359 40.53389739990234 L 54.22737121582031 47.9301872253418 C 54.89112091064453 48.59024810791016 55.24196243286133 49.48165893554688 55.24196243286133 50.508056640625 C 55.24196243286133 51.49331665039063 54.918212890625 52.36848831176758 54.27969360351563 53.10925674438477 L 54.25461196899414 53.13836669921875 L 54.22736358642578 53.16545867919922 C 53.48665237426758 53.90201950073242 52.56533050537109 54.29134750366211 51.56299209594727 54.29134750366211 C 50.55426788330078 54.29134750366211 49.61846542358398 53.88710784912109 48.92574310302734 53.15259170532227 L 41.48727035522461 45.72332763671875 L 41.48727035522461 56.19394683837891 C 41.48727035522461 57.20566940307617 41.09855270385742 58.14941024780273 40.3927116394043 58.8513298034668 C 39.67813110351563 59.5618896484375 38.77063369750977 59.93746948242188 37.768310546875 59.93746948242188 Z M 57.00091171264648 59.89770889282227 C 55.96243667602539 59.89770889282227 55.06505966186523 59.50411987304688 54.40200042724609 58.75878524780273 C 53.66899108886719 58.0625114440918 53.2819709777832 57.16315460205078 53.2819709777832 56.15417861938477 C 53.2819709777832 55.15998840332031 53.6792106628418 54.23734664916992 54.40180969238281 53.54977416992188 C 55.06488418579102 52.80425643920898 55.9622802734375 52.41063690185547 57.00091171264648 52.41063690185547 C 58.01758193969727 52.41063690185547 58.91401290893555 52.78944778442383 59.665283203125 53.53656005859375 C 60.41810989379883 54.28516006469727 60.79983139038086 55.16585922241211 60.79983139038086 56.15417861938477 C 60.79983139038086 57.16097259521484 60.39253616333008 58.09431076049805 59.65240859985352 58.78454971313477 C 58.90374755859375 59.52323913574219 58.01179122924805 59.89770889282227 57.00091171264648 59.89770889282227 Z M 18.13589096069336 59.89770889282227 C 17.0974178314209 59.89770889282227 16.20004272460938 59.50411605834961 15.53697395324707 58.75878524780273 C 14.80397605895996 58.06250762939453 14.41694164276123 57.16314315795898 14.41694164276123 56.15417861938477 C 14.41694164276123 55.15999603271484 14.81411933898926 54.2374153137207 15.53671932220459 53.54983139038086 C 16.19980430603027 52.80431747436523 17.09726905822754 52.41063690185547 18.13589096069336 52.41063690185547 C 19.15256118774414 52.41063690185547 20.04899215698242 52.78944778442383 20.80026245117188 53.53656005859375 C 21.55309104919434 54.28516006469727 21.93481254577637 55.16585922241211 21.93481254577637 56.15417861938477 C 21.93481254577637 57.16097259521484 21.52751159667969 58.09431457519531 20.78738403320313 58.78455352783203 C 20.03870010375977 59.52324676513672 19.14675140380859 59.89770889282227 18.13589096069336 59.89770889282227 Z M 10.21893215179443 40.61340713500977 C 9.236650466918945 40.61340713500977 8.309683799743652 40.23210906982422 7.606799125671387 39.53940200805664 C 6.84584903717041 38.82738494873047 6.460001945495605 37.94267272949219 6.460001945495605 36.90963745117188 C 6.460001945495605 35.91135025024414 6.829581737518311 34.98787689208984 7.528791904449463 34.23906707763672 C 8.232841491699219 33.48509979248047 9.149251937866211 33.08656692504883 10.17895221710205 33.08656692504883 C 11.23482131958008 33.08656692504883 12.16505146026611 33.48509979248047 12.86909198760986 34.23906707763672 C 13.57829189300537 34.99857711791992 13.93788146972656 35.89707946777344 13.93788146972656 36.90963745117188 C 13.93788146972656 37.91004943847656 13.55938148498535 38.81520843505859 12.84331226348877 39.52727890014648 C 12.13898181915283 40.22768020629883 11.20695209503174 40.61340713500977 10.21893215179443 40.61340713500977 Z M 65.03783416748047 40.57366943359375 C 64.02403259277344 40.57366943359375 63.07780075073242 40.18792724609375 62.37345123291016 39.48750686645508 C 61.65738296508789 38.77544021606445 61.27889251708984 37.88401794433594 61.27889251708984 36.90963745117188 C 61.27889251708984 35.91135025024414 61.64847183227539 34.98787689208984 62.34768295288086 34.23906707763672 C 63.05173110961914 33.48509979248047 63.98197174072266 33.08656692504883 65.03783416748047 33.08656692504883 C 66.04137420654297 33.08656692504883 66.94396209716797 33.48509979248047 67.64800262451172 34.23906707763672 C 68.35720825195313 34.99858856201172 68.71680450439453 35.89709854125977 68.71680450439453 36.90963745117188 C 68.71680450439453 37.88403701782227 68.33830261230469 38.77544784545898 67.62223052978516 39.48751831054688 C 66.90768432617188 40.19807815551758 66.01401519775391 40.57366943359375 65.03783416748047 40.57366943359375 Z M 57.00091171264648 21.32912826538086 C 55.95595932006836 21.32912826538086 55.05399322509766 20.93073463439941 54.38974380493164 20.17636680603027 C 53.66484451293945 19.44290351867676 53.2819709777832 18.53414916992188 53.2819709777832 17.54582786560059 C 53.2819709777832 16.5516471862793 53.67915344238281 15.62906265258789 54.40175247192383 14.94147968292236 C 55.06483840942383 14.19597148895264 55.96228790283203 13.80228805541992 57.00091171264648 13.80228805541992 C 58.01757049560547 13.80228805541992 58.91399002075195 14.18109893798828 59.665283203125 14.92819881439209 C 60.41810989379883 15.67681884765625 60.79983139038086 16.55751800537109 60.79983139038086 17.54582786560059 C 60.79983139038086 18.54622840881348 60.40751266479492 19.46513938903809 59.6652717590332 20.20322799682617 C 58.91399002075195 20.95031929016113 58.01757049560547 21.32912826538086 57.00091171264648 21.32912826538086 Z M 18.13589096069336 21.32912826538086 C 17.09101295471191 21.32912826538086 16.18904876708984 20.93074226379395 15.52480220794678 20.17645645141602 C 14.79982566833496 19.44295883178711 14.41694164276123 18.53418922424316 14.41694164276123 17.54582786560059 C 14.41694164276123 16.55159568786621 14.81416034698486 15.62896823883057 15.53683662414551 14.94136333465576 C 16.19991874694824 14.19593620300293 17.09734344482422 13.80228805541992 18.13589096069336 13.80228805541992 C 19.15255165100098 13.80228805541992 20.04897117614746 14.18109893798828 20.80026245117188 14.92819881439209 C 21.55309104919434 15.67681884765625 21.93481254577637 16.55751800537109 21.93481254577637 17.54582786560059 C 21.93481254577637 18.54622840881348 21.5424919128418 19.46513938903809 20.80025100708008 20.20322799682617 C 20.0489616394043 20.95031929016113 19.15254211425781 21.32912826538086 18.13589096069336 21.32912826538086 Z M 37.64837265014648 13.25755882263184 C 36.64802169799805 13.25755882263184 35.72211074829102 12.89082813262939 34.97074127197266 12.19701862335205 C 34.21103286743164 11.49550819396973 33.80947113037109 10.59524822235107 33.80947113037109 9.593538284301758 C 33.80947113037109 8.53980827331543 34.21103286743164 7.612048625946045 34.97075271606445 6.910538673400879 C 35.73284149169922 6.206828594207764 36.63372039794922 5.850008487701416 37.64837265014648 5.850008487701416 C 38.65073013305664 5.850008487701416 39.55823135375977 6.225588321685791 40.27276229858398 6.936148643493652 C 40.97860336303711 7.638058662414551 41.36733245849609 8.581798553466797 41.36733245849609 9.593538284301758 C 41.36733245849609 10.56791877746582 40.98883056640625 11.45932865142822 40.27276229858398 12.17140865325928 C 39.55821228027344 12.88197803497314 38.65071105957031 13.25755882263184 37.64837265014648 13.25755882263184 Z" stroke="none" fill="#707070"/>
  </g>
</svg>
