<svg xmlns="http://www.w3.org/2000/svg" width="61" height="62" viewBox="0 0 61 62">
  <g id="wi-day-sunny" transform="translate(-3.37 -3)" fill="#fff">
    <path d="M 33.86999893188477 64.5 C 33.06696319580078 64.5 32.36574935913086 64.20256042480469 31.84163475036621 63.63973617553711 C 31.28908157348633 63.07564926147461 31.00888824462891 62.37080001831055 31.00888824462891 61.5446891784668 L 31.00888824462891 55.92850875854492 C 31.00888824462891 55.10374069213867 31.29448890686035 54.41244125366211 31.85776901245117 53.87380981445313 C 32.42398071289063 53.33237838745117 33.10099029541016 53.057861328125 33.86999893188477 53.057861328125 C 34.67939758300781 53.057861328125 35.3885498046875 53.34368896484375 35.9207878112793 53.88444137573242 C 36.45848083496094 54.43074035644531 36.73110961914063 55.11846160888672 36.73110961914063 55.92850875854492 L 36.73110961914063 61.5446891784668 C 36.73110961914063 62.37348175048828 36.44912719726563 63.0801887512207 35.89300918579102 63.64519119262695 C 35.3347282409668 64.21240234375 34.65408706665039 64.5 33.86999893188477 64.5 Z M 53.09220886230469 56.37911987304688 C 52.42430877685547 56.37911987304688 51.75949859619141 56.12229919433594 51.11623001098633 55.61579895019531 L 51.09138870239258 55.59624099731445 L 51.06919860839844 55.57369995117188 L 47.12474822998047 51.56618118286133 L 47.10886001586914 51.55004119873047 L 47.09449768066406 51.53252029418945 C 46.58828735351563 50.91532897949219 46.34222030639648 50.2115592956543 46.34222030639648 49.38100051879883 C 46.34222030639648 48.60889053344727 46.61281967163086 47.94132614135742 47.12493515014648 47.44932174682617 C 47.61941909790039 46.91987991333008 48.26251220703125 46.65147018432617 49.03665924072266 46.65147018432617 C 49.8231086730957 46.65147018432617 50.4998893737793 46.9162712097168 51.04817962646484 47.43851852416992 L 51.05213928222656 47.44229125976563 L 51.0560188293457 47.44615173339844 L 55.11156845092773 51.48189926147461 L 55.11877059936523 51.48907089233398 L 55.12567901611328 51.49652862548828 C 55.64896011352539 52.0613899230957 55.9255485534668 52.77418899536133 55.9255485534668 53.55786895751953 C 55.9255485534668 54.33803939819336 55.64534759521484 55.03509902954102 55.11523056030273 55.57369995117188 L 55.09304046630859 55.59624099731445 L 55.06819915771484 55.61579895019531 C 54.42493057250977 56.12229919433594 53.76010894775391 56.37911987304688 53.09220886230469 56.37911987304688 Z M 14.68944931030273 56.3720588684082 C 14.00707912445068 56.3720588684082 13.32778930664063 56.10776138305664 12.67043876647949 55.58649826049805 L 12.64633846282959 55.56739044189453 L 12.62475872039795 55.54547119140625 C 12.09463882446289 55.00687026977539 11.81443881988525 54.30979919433594 11.81443881988525 53.52962875366211 C 11.81443881988525 52.7855110168457 12.06754875183105 52.0996208190918 12.56672859191895 51.49100112915039 L 12.58328914642334 51.47082138061523 L 12.60184860229492 51.45246887207031 L 16.67759704589844 47.42422485351563 C 17.17277145385742 46.8927001953125 17.84490013122559 46.62324142456055 18.67555809020996 46.62324142456055 C 19.46199798583984 46.62324142456055 20.13876914978027 46.88803863525391 20.68707847595215 47.4102897644043 C 21.23238945007324 47.92969131469727 21.50888824462891 48.59273147583008 21.50888824462891 49.38100051879883 C 21.50888824462891 50.18701934814453 21.23558807373047 50.92544174194336 20.71853828430176 51.51642990112305 L 20.7088680267334 51.52748107910156 L 20.69857978820801 51.53794097900391 L 16.75412940979004 55.54547119140625 L 16.7325496673584 55.56739044189453 L 16.70844841003418 55.58649826049805 C 16.05109977722168 56.10776138305664 15.3718090057373 56.3720588684082 14.68944931030273 56.3720588684082 Z M 33.84222030639648 49.20367813110352 C 31.1361198425293 49.20367813110352 28.61064910888672 48.51523971557617 26.33595848083496 47.157470703125 C 24.055908203125 45.7965202331543 22.22079849243164 43.93217849731445 20.8816089630127 41.61624908447266 L 20.87861824035645 41.61108016967773 L 20.8757495880127 41.60585021972656 C 19.56326866149902 39.20560073852539 18.89777946472168 36.63713073730469 18.89777946472168 33.97177886962891 C 18.89777946472168 31.24508094787598 19.5745792388916 28.69211006164551 20.90937805175781 26.38376998901367 C 22.27021980285645 24.03039932250977 24.11546897888184 22.15609931945801 26.39385986328125 20.81294059753418 C 28.72783851623535 19.43697929382324 31.17330932617188 18.76811027526855 33.86999893188477 18.76811027526855 C 35.86555862426758 18.76811027526855 37.82085800170898 19.1810302734375 39.68157958984375 19.99538993835449 C 41.56000137329102 20.83033180236816 43.16364288330078 21.93022155761719 44.45049285888672 23.26552772521973 C 45.80096435546875 24.63811874389648 46.87319183349609 26.26716804504395 47.6373291015625 28.1074104309082 C 48.41839981079102 29.98847961425781 48.81443786621094 31.97102928161621 48.81443786621094 34.0000114440918 C 48.81443786621094 36.74542999267578 48.13763809204102 39.30789947509766 46.80283737182617 41.61624908447266 C 45.46363830566406 43.93217849731445 43.6285400390625 45.7965202331543 41.3484992980957 47.157470703125 C 39.07376861572266 48.51523971557617 36.54829788208008 49.20367813110352 33.84222030639648 49.20367813110352 Z M 33.89776992797852 24.62229919433594 C 31.34567832946777 24.62229919433594 29.14781951904297 25.54059982299805 27.36523818969727 27.35168075561523 C 25.51714897155762 29.20251083374023 24.61999893188477 31.36713027954102 24.61999893188477 33.97177886962891 C 24.61999893188477 36.6255989074707 25.50888824462891 38.81874084472656 27.33745956420898 40.67654037475586 C 29.13139915466309 42.52597045898438 31.33774948120117 43.46237945556641 33.89776992797852 43.46237945556641 C 36.48582077026367 43.46237945556641 38.64080810546875 42.55112075805664 40.48587036132813 40.67654037475586 C 42.33313751220703 38.79973983764648 43.23110961914063 36.60659027099609 43.23110961914063 33.97177886962891 C 43.23110961914063 31.39393043518066 42.33313751220703 29.22847938537598 40.48587036132813 27.35168075561523 C 38.65243911743164 25.51593017578125 36.49660873413086 24.62229919433594 33.89776992797852 24.62229919433594 Z M 12.42555904388428 36.89886856079102 L 6.758888721466064 36.89886856079102 C 5.974799156188965 36.89886856079102 5.294158935546875 36.61127090454102 4.735878944396973 36.04404830932617 C 4.161328792572021 35.46033096313477 3.869998931884766 34.76311111450195 3.869998931884766 33.97177886962891 C 3.869998931884766 33.14300155639648 4.151978969573975 32.436279296875 4.708108901977539 31.87128067016602 L 4.713418960571289 31.86587905883789 L 4.718888759613037 31.86064910888672 C 5.277119159698486 31.32683944702148 5.972929000854492 31.0446891784668 6.731109142303467 31.0446891784668 L 12.39777851104736 31.0446891784668 C 13.17805862426758 31.0446891784668 13.84352874755859 31.33597946166992 14.37568855285645 31.91044998168945 L 14.38113880157471 31.91633987426758 L 14.386399269104 31.92238998413086 C 14.89160919189453 32.50413131713867 15.14777851104736 33.19364166259766 15.14777851104736 33.97177886962891 C 15.14777851104736 34.78239822387695 14.90781879425049 35.4527587890625 14.4141788482666 36.02117156982422 C 13.91550922393799 36.59537124633789 13.227858543396 36.89886856079102 12.42555904388428 36.89886856079102 Z M 60.98109817504883 36.87065887451172 L 55.36998748779297 36.87065887451172 C 54.56769943237305 36.87065887451172 53.88005065917969 36.56716156005859 53.38137054443359 35.99296951293945 C 52.86904907226563 35.40301895141602 52.61999893188477 34.74188995361328 52.61999893188477 33.97177886962891 C 52.61999893188477 33.18069839477539 52.8785285949707 32.50065994262695 53.41035079956055 31.89278984069824 L 53.42001724243164 31.88174057006836 L 53.4303092956543 31.87128067016602 C 53.97015762329102 31.32279968261719 54.62276840209961 31.0446891784668 55.36998748779297 31.0446891784668 L 60.98109817504883 31.0446891784668 C 61.74675750732422 31.0446891784668 62.42741012573242 31.34178924560547 63.00411987304688 31.9277400970459 C 63.57867050170898 32.51145935058594 63.86999893188477 33.19918060302734 63.86999893188477 33.97177886962891 C 63.86999893188477 34.74438095092773 63.57867050170898 35.43209838867188 63.00411987304688 36.01585006713867 C 62.44582748413086 36.58306121826172 61.76519012451172 36.87065887451172 60.98109817504883 36.87065887451172 Z M 49.03665924072266 21.4332103729248 C 48.26314926147461 21.4332103729248 47.63412857055664 21.15900993347168 47.11363983154297 20.5949592590332 C 46.60175704956055 20.04022026062012 46.34222030639648 19.35642051696777 46.34222030639648 18.56255912780762 C 46.34222030639648 17.73427200317383 46.61358642578125 17.03665351867676 47.12717056274414 16.54407119750977 L 51.06319046020508 12.40429973602295 L 51.07138824462891 12.39566993713379 L 51.07999801635742 12.3874397277832 C 51.63824081420898 11.85365009307861 52.32444763183594 11.57149982452393 53.06443786621094 11.57149982452393 C 53.87898635864258 11.57149982452393 54.56135940551758 11.86090755462646 55.09279251098633 12.43176174163818 C 55.64535522460938 12.99572563171387 55.9255485534668 13.68159961700439 55.9255485534668 14.47037029266357 C 55.9255485534668 15.31787967681885 55.65291976928711 16.02458953857422 55.11521911621094 16.57086944580078 L 55.11340713500977 16.57271957397461 L 55.11156845092773 16.57455062866211 L 51.0560188293457 20.61030006408691 L 51.04742813110352 20.61883926391602 L 51.0384407043457 20.62696075439453 C 50.44603729248047 21.16194915771484 49.77253723144531 21.4332103729248 49.03665924072266 21.4332103729248 Z M 18.67555809020996 21.40498924255371 C 17.87310409545898 21.40498924255371 17.18222618103027 21.11800956726074 16.6768684387207 20.57500457763672 L 12.62841892242432 16.54632949829102 L 12.62657928466797 16.54450035095215 L 12.62475872039795 16.54265022277832 C 12.09463882446289 16.00404930114746 11.81443881988525 15.2874698638916 11.81443881988525 14.47037029266357 C 11.81443881988525 13.72624015808105 12.06754875183105 13.04034996032715 12.56673908233643 12.43173980712891 L 12.59399890899658 12.39850997924805 L 12.6265287399292 12.37040996551514 C 13.27100849151611 11.81383991241455 13.95942878723145 11.54327964782715 14.73110866546631 11.54327964782715 C 15.47111892700195 11.54327964782715 16.15732955932617 11.82542991638184 16.7155590057373 12.35923957824707 L 16.72352981567383 12.36686038970947 L 16.73114967346191 12.3748197555542 L 20.69581604003906 16.51555061340332 C 21.22778511047363 17.02690696716309 21.50888824462891 17.72468185424805 21.50888824462891 18.53433990478516 C 21.50888824462891 19.34439086914063 21.23625946044922 20.0321102142334 20.69857978820801 20.57839965820313 C 20.15872955322266 21.12688064575195 19.47808837890625 21.40498924255371 18.67555809020996 21.40498924255371 Z M 33.89776992797852 14.97037029266357 C 33.13348770141602 14.97037029266357 32.41912078857422 14.69085025787354 31.88624954223633 14.18330955505371 C 31.32047843933105 13.64441013336182 31.00888824462891 12.93451023101807 31.00888824462891 12.1843900680542 L 31.00888824462891 6.427090167999268 C 31.00888824462891 5.635769844055176 31.29085922241211 4.948050022125244 31.84697914123535 4.383039951324463 C 32.42369842529297 3.79709005355835 33.11367797851563 3.5 33.89776992797852 3.5 C 34.69289779663086 3.5 35.35463714599609 3.77960991859436 35.9207878112793 4.354810237884521 C 36.47690963745117 4.919839859008789 36.75888824462891 5.607560157775879 36.75888824462891 6.39886999130249 L 36.75888824462891 12.1843900680542 C 36.75888824462891 12.97169971466064 36.4732780456543 13.64400959014893 35.90999984741211 14.18262958526611 C 35.36338043212891 14.70534038543701 34.68636703491211 14.97037029266357 33.89776992797852 14.97037029266357 Z" stroke="none"/>
    <path d="M 33.89776992797852 4 C 33.23110961914063 4 32.6755485534668 4.254001617431641 32.20332717895508 4.733768463134766 C 31.73110961914063 5.213550567626953 31.50888824462891 5.777988433837891 31.50888824462891 6.427089691162109 L 31.50888824462891 12.18439102172852 C 31.50888824462891 12.83348846435547 31.78665924072266 13.39793014526367 32.23109817504883 13.82125854492188 C 32.6755485534668 14.24459075927734 33.25888824462891 14.47037124633789 33.89776992797852 14.47037124633789 C 34.53665924072266 14.47037124633789 35.09222030639648 14.27281951904297 35.56443786621094 13.82125854492188 C 36.03665924072266 13.36970901489258 36.25888824462891 12.83348846435547 36.25888824462891 12.18439102172852 L 36.25888824462891 6.398868560791016 C 36.25888824462891 5.749759674072266 36.03665924072266 5.185321807861328 35.56443786621094 4.705551147460938 C 35.09222030639648 4.225780487060547 34.56443786621094 4 33.89776992797852 4 M 14.73110961914063 12.04327011108398 C 14.09222030639648 12.04327011108398 13.50888824462891 12.26905059814453 12.95332717895508 12.74882125854492 C 12.53667068481445 13.25682067871094 12.31443786621094 13.82125854492188 12.31443786621094 14.47037124633789 C 12.31443786621094 15.14770126342773 12.53667068481445 15.74036026000977 12.98110961914063 16.19190979003906 L 17.03667068481445 20.2276611328125 C 17.45333862304688 20.6792106628418 18.00888824462891 20.90499114990234 18.6755485534668 20.90499114990234 C 19.34222030639648 20.90499114990234 19.89777755737305 20.6792106628418 20.34222030639648 20.2276611328125 C 20.78667068481445 19.7761116027832 21.00888824462891 19.211669921875 21.00888824462891 18.53433990478516 C 21.00888824462891 17.85700988769531 20.78667068481445 17.29256057739258 20.34222030639648 16.86923980712891 L 16.36999893188477 12.72060012817383 C 15.89777755737305 12.26905059814453 15.34222030639648 12.04327011108398 14.73110961914063 12.04327011108398 M 53.06443786621094 12.07149124145508 C 52.45333099365234 12.07149124145508 51.89776992797852 12.29727172851563 51.4255485534668 12.74882125854492 L 47.48109817504883 16.8974609375 C 47.06443786621094 17.29256820678711 46.84221649169922 17.85700988769531 46.84221649169922 18.56256103515625 C 46.84221649169922 19.23989105224609 47.06443786621094 19.80432891845703 47.48109817504883 20.25587844848633 C 47.89776611328125 20.70743179321289 48.39776611328125 20.93320846557617 49.03665924072266 20.93320846557617 C 49.64778137207031 20.93320846557617 50.20331954956055 20.70743179321289 50.70333099365234 20.25587844848633 L 54.75888061523438 16.22013092041016 C 55.20333099365234 15.76858139038086 55.4255485534668 15.17591857910156 55.4255485534668 14.47037124633789 C 55.4255485534668 13.82125854492188 55.20333099365234 13.25682067871094 54.73109817504883 12.77703857421875 C 54.28665924072266 12.29727172851563 53.73109817504883 12.07149124145508 53.06443786621094 12.07149124145508 M 33.86999893188477 19.26810836791992 C 31.28667068481445 19.26810836791992 28.89776992797852 19.91722106933594 26.64777755737305 21.24365997314453 C 24.39777755737305 22.5700798034668 22.64777755737305 24.37630081176758 21.34222030639648 26.63405990600586 C 20.03667068481445 28.89181900024414 19.39777755737305 31.34712982177734 19.39777755737305 33.97177886962891 C 19.39777755737305 36.62464904785156 20.06443786621094 39.07997131347656 21.31444931030273 41.36595916748047 C 22.61999893188477 43.62371063232422 24.36999893188477 45.40169906616211 26.59222030639648 46.72814178466797 C 28.81443786621094 48.05458068847656 31.23110961914063 48.70368194580078 33.84222030639648 48.70368194580078 C 36.45333099365234 48.70368194580078 38.86999893188477 48.05456924438477 41.09221649169922 46.72814178466797 C 43.31443786621094 45.40169906616211 45.06443786621094 43.62371063232422 46.36999893188477 41.36595916748047 C 47.6755485534668 39.10819244384766 48.31443786621094 36.65287017822266 48.31443786621094 34.0000114440918 C 48.31443786621094 32.02445983886719 47.9255485534668 30.10536956787109 47.17555999755859 28.29916000366211 C 46.4255485534668 26.49295043945313 45.39776611328125 24.94073867797852 44.09220886230469 23.61429977416992 C 42.81444931030273 22.28786849975586 41.25888824462891 21.24365997314453 39.48110961914063 20.45344161987305 C 37.6755485534668 19.6632194519043 35.81443786621094 19.26810836791992 33.86999893188477 19.26810836791992 M 33.89776992797852 43.96237945556641 C 31.1755485534668 43.96237945556641 28.86999893188477 42.974609375 26.98110961914063 41.02728271484375 C 25.06444931030273 39.07997131347656 24.11999893188477 36.73754119873047 24.11999893188477 33.97177886962891 C 24.11999893188477 31.26247024536133 25.06444931030273 28.94826126098633 27.00888824462891 27.00093841552734 C 28.89777755737305 25.08184814453125 31.20332717895508 24.12229919433594 33.89776992797852 24.12229919433594 C 36.61998748779297 24.12229919433594 38.9255485534668 25.08184051513672 40.84221649169922 27.00093841552734 C 42.75888824462891 28.94826126098633 43.73110961914063 31.26247024536133 43.73110961914063 33.97177886962891 C 43.73110961914063 36.73754119873047 42.75888824462891 39.07995986938477 40.84221649169922 41.02728271484375 C 38.9255485534668 42.974609375 36.61998748779297 43.96237945556641 33.89776992797852 43.96237945556641 M 6.731109619140625 31.5446891784668 C 6.119998931884766 31.5446891784668 5.536670684814453 31.77045822143555 5.064449310302734 32.22201919555664 C 4.592220306396484 32.70178985595703 4.369998931884766 33.29446029663086 4.369998931884766 33.97177886962891 C 4.369998931884766 34.64910888671875 4.619998931884766 35.21355056762695 5.092220306396484 35.69332122802734 C 5.564449310302734 36.17309951782227 6.119998931884766 36.39887237548828 6.758888244628906 36.39887237548828 L 12.42555999755859 36.39887237548828 C 13.06443786621094 36.39887237548828 13.61999893188477 36.17309951782227 14.03667068481445 35.69332122802734 C 14.45332717895508 35.21355056762695 14.64777755737305 34.64910888671875 14.64777755737305 33.97177886962891 C 14.64777755737305 33.29446029663086 14.4255485534668 32.73001098632813 14.00888824462891 32.25024032592773 C 13.56444931030273 31.77045822143555 13.03665924072266 31.5446891784668 12.39777755737305 31.5446891784668 L 6.731109619140625 31.5446891784668 M 55.36998748779297 31.5446891784668 C 54.75888061523438 31.5446891784668 54.23110961914063 31.77045822143555 53.78665924072266 32.22201919555664 C 53.34222030639648 32.73001098632813 53.11999893188477 33.29446029663086 53.11999893188477 33.97177886962891 C 53.11999893188477 34.64910888671875 53.34222030639648 35.18532943725586 53.75888061523438 35.66511154174805 C 54.1755485534668 36.14488220214844 54.73109817504883 36.37065124511719 55.36998748779297 36.37065124511719 L 60.98109817504883 36.37065124511719 C 61.61998748779297 36.37065124511719 62.1755485534668 36.14488220214844 62.64776992797852 35.66511154174805 C 63.11999893188477 35.18532943725586 63.36999893188477 34.62089157104492 63.36999893188477 33.97177886962891 C 63.36999893188477 33.32268142700195 63.11999893188477 32.75823974609375 62.64776992797852 32.27846908569336 C 62.1755485534668 31.79869079589844 61.61998748779297 31.5446891784668 60.98109817504883 31.5446891784668 L 55.36998748779297 31.5446891784668 M 18.6755485534668 47.12323760986328 C 18.00888824462891 47.12323760986328 17.45332717895508 47.3207893371582 17.03667068481445 47.7723388671875 L 12.95332717895508 51.80809020996094 C 12.53667068481445 52.31608963012695 12.31443786621094 52.88053131103516 12.31443786621094 53.52962875366211 C 12.31443786621094 54.17874145507813 12.53667068481445 54.74317932128906 12.98110961914063 55.19472885131836 C 13.55055236816406 55.64627838134766 14.11999893188477 55.87205505371094 14.68944549560547 55.87205505371094 C 15.25888824462891 55.87205505371094 15.82833480834961 55.64627838134766 16.39777755737305 55.19472885131836 L 20.34222030639648 51.18720245361328 C 20.78667068481445 50.6792106628418 21.00888824462891 50.05833053588867 21.00888824462891 49.38100051879883 C 21.00888824462891 48.73188781738281 20.78667068481445 48.19567108154297 20.34222030639648 47.7723388671875 C 19.89776992797852 47.3490104675293 19.34222030639648 47.12323760986328 18.6755485534668 47.12323760986328 M 49.03665924072266 47.15147018432617 C 48.42555999755859 47.15147018432617 47.89776611328125 47.34902191162109 47.48109817504883 47.80056762695313 C 47.06443786621094 48.1956787109375 46.84221649169922 48.73189926147461 46.84221649169922 49.38100051879883 C 46.84221649169922 50.11476898193359 47.06443786621094 50.70742797851563 47.48109817504883 51.21543884277344 L 51.4255485534668 55.22296142578125 C 51.98110198974609 55.660400390625 52.53665542602539 55.87911987304688 53.09220886230469 55.87911987304688 C 53.64776611328125 55.87911987304688 54.20331954956055 55.660400390625 54.75888061523438 55.22296142578125 C 55.20331954956055 54.77140045166016 55.425537109375 54.20697021484375 55.425537109375 53.557861328125 C 55.425537109375 52.90876007080078 55.20331954956055 52.31608963012695 54.75888061523438 51.83631896972656 L 50.70333099365234 47.80056762695313 C 50.25888061523438 47.37723922729492 49.70333099365234 47.15147018432617 49.03665924072266 47.15147018432617 M 33.86999893188477 53.557861328125 C 33.23110961914063 53.557861328125 32.6755485534668 53.78363037109375 32.20332717895508 54.23517990112305 C 31.73110961914063 54.68674087524414 31.50888824462891 55.25117111206055 31.50888824462891 55.92850875854492 L 31.50888824462891 61.54468154907227 C 31.50888824462891 62.22201919555664 31.73110961914063 62.81468200683594 32.20332717895508 63.29444885253906 C 32.64776992797852 63.77423095703125 33.23110961914063 64 33.86999893188477 64 C 34.50888824462891 64 35.06443786621094 63.77423095703125 35.53667068481445 63.29444885253906 C 36.00888824462891 62.81468200683594 36.23110961914063 62.22201156616211 36.23110961914063 61.54468154907227 L 36.23110961914063 55.92850875854492 C 36.23110961914063 55.25117111206055 36.00888824462891 54.68674087524414 35.56443786621094 54.23517990112305 C 35.11999893188477 53.78363037109375 34.53665924072266 53.557861328125 33.86999893188477 53.557861328125 M 33.89776992797852 3 C 34.83382797241211 3 35.61212921142578 3.328437805175781 36.27713012695313 4.004070281982422 C 36.92858123779297 4.665939331054688 37.25888824462891 5.471660614013672 37.25888824462891 6.398868560791016 L 37.25888824462891 12.18439102172852 C 37.25888824462891 13.11349105834961 36.92131805419922 13.90737915039063 36.25554656982422 14.54401016235352 C 35.61273956298828 15.15869140625 34.8194694519043 15.47037124633789 33.89776992797852 15.47037124633789 C 33.00450897216797 15.47037124633789 32.16766738891602 15.14186096191406 31.54140853881836 14.54536056518555 C 30.87557983398438 13.91115951538086 30.50888824462891 13.07268142700195 30.50888824462891 12.18439102172852 L 30.50888824462891 6.427089691162109 C 30.50888824462891 5.499889373779297 30.83919906616211 4.694160461425781 31.49062728881836 4.032299041748047 C 32.16484069824219 3.347312927246094 32.97470855712891 3 33.89776992797852 3 Z M 14.73110961914063 11.04327011108398 C 15.60232925415039 11.04327011108398 16.40802764892578 11.37335968017578 17.06110763549805 11.99784851074219 L 17.07704925537109 12.01308822631836 L 17.09230041503906 12.02901840209961 L 21.05014038085938 16.16264343261719 C 21.67744064331055 16.76968765258789 22.00888824462891 17.58921432495117 22.00888824462891 18.53433990478516 C 22.00888824462891 19.48028945922852 21.68791961669922 20.2860107421875 21.05490875244141 20.92913818359375 C 20.42655944824219 21.56753921508789 19.60379028320313 21.90499114990234 18.6755485534668 21.90499114990234 C 17.73411560058594 21.90499114990234 16.91933441162109 21.56549835205078 16.31768035888672 20.92294692993164 L 12.27573776245117 16.90074920654297 L 12.27206039428711 16.89707946777344 L 12.26840972900391 16.89337921142578 C 11.64431762695313 16.25930023193359 11.31443786621094 15.42144012451172 11.31443786621094 14.47037124633789 C 11.31443786621094 13.60758972167969 11.60569763183594 12.81501007080078 12.18013763427734 12.11465072631836 L 12.23465728759766 12.04816818237305 L 12.29972839355469 11.99198150634766 C 13.0286979675293 11.36246109008789 13.84672927856445 11.04327011108398 14.73110961914063 11.04327011108398 Z M 53.06443786621094 11.07149124145508 C 54.02120208740234 11.07149124145508 54.82514572143555 11.41286849975586 55.45426177978516 12.08624267578125 C 56.09878158569336 12.74609375 56.4255485534668 13.54813003540039 56.4255485534668 14.47037124633789 C 56.4255485534668 15.43991851806641 56.09566879272461 16.28754043579102 55.4715690612793 16.92161178588867 L 55.46792984008789 16.92530822753906 L 55.46424865722656 16.92897033691406 L 51.40869903564453 20.9647216796875 L 51.39152908325195 20.9818000793457 L 51.37355804443359 20.99803924560547 C 50.68642807006836 21.61856842041016 49.90017700195313 21.93320846557617 49.03665924072266 21.93320846557617 C 48.12860107421875 21.93320846557617 47.35797119140625 21.59703826904297 46.74617767333984 20.93402862548828 C 46.15480041503906 20.29312896728516 45.84221649169922 19.47309875488281 45.84221649169922 18.56256103515625 C 45.84221649169922 17.59926223754883 46.16364288330078 16.78021621704102 46.77222442626953 16.19174575805664 L 50.70082855224609 12.05976867675781 L 50.71723175048828 12.04251861572266 L 50.73443984985352 12.02606964111328 C 51.38751983642578 11.40158081054688 52.19321823120117 11.07149124145508 53.06443786621094 11.07149124145508 Z M 33.86999893188477 18.26810836791992 C 35.93497848510742 18.26810836791992 37.95772933959961 18.69514083862305 39.88204956054688 19.53733825683594 L 39.88466644287109 19.53847885131836 L 39.88729095458984 19.53964996337891 C 41.82145690917969 20.39938354492188 43.47728729248047 21.53562164306641 44.80879211425781 22.91677856445313 C 46.2036247253418 24.33494186401367 47.31059265136719 26.01673889160156 48.09909820556641 27.91566848754883 C 48.90554046630859 29.85781860351563 49.31443786621094 31.90488815307617 49.31443786621094 34.0000114440918 C 49.31443786621094 36.83444976806641 48.61505126953125 39.48113250732422 47.23568725585938 41.86653900146484 C 45.85332870483398 44.25709915161133 43.95880889892578 46.18167114257813 41.60475921630859 47.58680725097656 C 39.25148010253906 48.99146270751953 36.63978958129883 49.70368194580078 33.84222030639648 49.70368194580078 C 31.04462814331055 49.70368194580078 28.43293762207031 48.99146270751953 26.07967758178711 47.58680725097656 C 23.72562026977539 46.18167114257813 21.83110046386719 44.25708770751953 20.44875717163086 41.86655044555664 L 20.44278717041016 41.85620880126953 L 20.43705749511719 41.84572982788086 C 19.08388900756836 39.37108993530273 18.39777755737305 36.72190856933594 18.39777755737305 33.97177886962891 C 18.39777755737305 31.15605926513672 19.09716796875 28.51887893676758 20.47652816772461 26.13348007202148 C 21.88101959228516 23.70463180541992 23.78646850585938 21.76963043212891 26.13993835449219 20.38220977783203 C 28.5529899597168 18.95964050292969 31.08152008056641 18.26810836791992 33.86999893188477 18.26810836791992 Z M 40.13182830810547 27.70475769042969 C 38.39501190185547 25.96705627441406 36.35576629638672 25.12229919433594 33.89776992797852 25.12229919433594 C 31.45066070556641 25.12229919433594 29.4304084777832 25.96625900268555 27.72158050537109 27.70241928100586 L 27.71905899047852 27.70497894287109 L 27.71651840209961 27.70751953125 C 25.96932983398438 29.45729827880859 25.11999893188477 31.5063591003418 25.11999893188477 33.97177886962891 C 25.11999893188477 36.48777770996094 25.96189880371094 38.56620025634766 27.69379806518555 40.32579803466797 L 27.69635772705078 40.32840728759766 L 27.69890975952148 40.33103179931641 C 29.41639709472656 42.10166168212891 31.44405746459961 42.96237945556641 33.89776992797852 42.96237945556641 C 36.34488677978516 42.96237945556641 38.38330841064453 42.09995269775391 40.1295166015625 40.32580947875977 C 41.88011932373047 38.54721069335938 42.73110961914063 36.46878814697266 42.73110961914063 33.97177886962891 C 42.73110961914063 31.53277206420898 41.88090515136719 29.48282241821289 40.13182830810547 27.70475769042969 Z M 6.731109619140625 30.5446891784668 L 12.39777755737305 30.5446891784668 C 13.32297897338867 30.5446891784668 14.11185836791992 30.8898811340332 14.74250030517578 31.57067108154297 L 14.75339889526367 31.58243179321289 L 14.76390838623047 31.59453964233398 C 15.35039901733398 32.26987075805664 15.64777755737305 33.0696907043457 15.64777755737305 33.97177886962891 C 15.64777755737305 34.89509963989258 15.35974884033203 35.69491958618164 14.79169082641602 36.34902191162109 C 14.19521713256836 37.03583908081055 13.37701797485352 37.39887237548828 12.42555999755859 37.39887237548828 L 6.758888244628906 37.39887237548828 C 5.835830688476563 37.39887237548828 5.035297393798828 37.06105041503906 4.379528045654297 36.39479827880859 C 3.709648132324219 35.71421051025391 3.370002746582031 34.89899063110352 3.370002746582031 33.97177886962891 C 3.370002746582031 33.02069091796875 3.709487915039063 32.17306900024414 4.351768493652344 31.52053833007813 L 4.362388610839844 31.50973892211914 L 4.373329162597656 31.4992790222168 C 5.017070770263672 30.88370132446289 5.854408264160156 30.5446891784668 6.731109619140625 30.5446891784668 Z M 55.36998748779297 30.5446891784668 L 60.98109817504883 30.5446891784668 C 61.87299728393555 30.5446891784668 62.69577026367188 30.90166091918945 63.36046981811523 31.57699966430664 C 64.02089691162109 32.24797821044922 64.3699951171875 33.07609176635742 64.3699951171875 33.97177886962891 C 64.3699951171875 34.86746978759766 64.02091217041016 35.69557952880859 63.36045837402344 36.36659240722656 C 62.7047004699707 37.03282928466797 61.90416717529297 37.37065124511719 60.98109817504883 37.37065124511719 L 55.36998748779297 37.37065124511719 C 54.41852951049805 37.37065124511719 53.60033798217773 37.00762939453125 53.00386810302734 36.32081985473633 C 52.40911102294922 35.63595962524414 52.11999893188477 34.86759185791016 52.11999893188477 33.97177886962891 C 52.11999893188477 33.06703948974609 52.42752838134766 32.25680160522461 53.03404998779297 31.56356048583984 L 53.05336761474609 31.54146957397461 L 53.07395935058594 31.52054977416992 C 53.70232009887695 30.88214111328125 54.49627685546875 30.5446891784668 55.36998748779297 30.5446891784668 Z M 18.6755485534668 46.12323760986328 C 19.58176803588867 46.12323760986328 20.39657974243164 46.44309997558594 21.03190994262695 47.04824066162109 C 21.67105865478516 47.65700912475586 22.00888824462891 48.46366882324219 22.00888824462891 49.38100051879883 C 22.00888824462891 50.30992889404297 21.69281005859375 51.16218948364258 21.09482955932617 51.84567260742188 L 21.07550048828125 51.86775970458984 L 21.05490875244141 51.888671875 L 17.11046981811523 55.89620208740234 L 17.06731033325195 55.94004821777344 L 17.01910018920898 55.97827911376953 C 16.27119827270508 56.57133865356445 15.48737716674805 56.87205123901367 14.68943786621094 56.87205123901367 C 13.89148712158203 56.87205123901367 13.1076774597168 56.57133865356445 12.35977935791016 55.97827911376953 L 12.31156921386719 55.94004821777344 L 12.26840972900391 55.89620208740234 C 11.64431762695313 55.26211929321289 11.31443786621094 54.44377899169922 11.31443786621094 53.52962875366211 C 11.31443786621094 52.6668586730957 11.60569763183594 51.87428283691406 12.18013763427734 51.17391967773438 L 12.21324920654297 51.13355255126953 L 12.2503776550293 51.09684753417969 L 16.31896209716797 47.07568359375 C 16.91162490844727 46.44368743896484 17.7043571472168 46.12323760986328 18.6755485534668 46.12323760986328 Z M 49.03665924072266 46.15147018432617 C 49.94287872314453 46.15147018432617 50.7576904296875 46.47132873535156 51.39302062988281 47.07646942138672 L 51.40094757080078 47.08402252197266 L 51.40869903564453 47.09172821044922 L 55.46424865722656 51.12747955322266 L 55.47866821289063 51.14183044433594 L 55.49247741699219 51.15673828125 C 56.10289001464844 51.81568145751953 56.425537109375 52.64596939086914 56.425537109375 53.557861328125 C 56.425537109375 54.47200012207031 56.09566879272461 55.29034042358398 55.47158050537109 55.92443084716797 L 55.42720794677734 55.96950912475586 L 55.37751007080078 56.00864028930664 C 54.64393997192383 56.58625030517578 53.87504959106445 56.87911987304688 53.09220886230469 56.87911987304688 C 52.30935668945313 56.87911987304688 51.54048156738281 56.58625030517578 50.80690765380859 56.00862884521484 L 50.75721740722656 55.96950912475586 L 50.71286010742188 55.9244384765625 L 46.76840972900391 51.91691970825195 L 46.73662948608398 51.88462829589844 L 46.70790100097656 51.84960174560547 C 46.13347625732422 51.14923858642578 45.84221649169922 50.31867980957031 45.84221649169922 49.38100051879883 C 45.84221649169922 48.47415542602539 46.1624870300293 47.68556213378906 46.76887893676758 47.09807968139648 C 47.35268402099609 46.47867965698242 48.13610076904297 46.15147018432617 49.03665924072266 46.15147018432617 Z M 33.86999893188477 52.557861328125 C 34.81641006469727 52.557861328125 35.64878082275391 52.89530181884766 36.27713775634766 53.53371047973633 C 36.91014862060547 54.17684173583984 37.23110961914063 54.98257064819336 37.23110961914063 55.92850875854492 L 37.23110961914063 61.54468154907227 C 37.23110961914063 62.49576950073242 36.89162826538086 63.34339141845703 36.24935913085938 63.99592971801758 C 35.59358978271484 64.66217803955078 34.79306030273438 65 33.86999893188477 65 C 32.9267463684082 65 32.1007194519043 64.649169921875 31.4801139831543 63.98519134521484 C 30.84468078613281 63.3341064453125 30.50888824462891 62.49054718017578 30.50888824462891 61.54468154907227 L 30.50888824462891 55.92850875854492 C 30.50888824462891 54.96195220947266 30.84645843505859 54.14907073974609 31.51220703125 53.5124397277832 C 32.17461776733398 52.87902069091797 32.96788787841797 52.557861328125 33.86999893188477 52.557861328125 Z" stroke="none" fill="#707070"/>
  </g>
</svg>
